<?xml version="1.0" standalone="no"?><!DOCTYPE svg PUBLIC "-//W3C//DTD SVG 1.1//EN" "http://www.w3.org/Graphics/SVG/1.1/DTD/svg11.dtd"><svg t="1558592383713" class="icon" style="" viewBox="0 0 1024 1024" version="1.1" xmlns="http://www.w3.org/2000/svg" p-id="5907" xmlns:xlink="http://www.w3.org/1999/xlink" width="200" height="200"><defs><style type="text/css"></style></defs><path d="M706.52520533 947.3347456c-7.85960427 0-15.71920853-2.5107072-22.0505568-7.75044267L453.81709653 749.9713504H151.2223328c-45.520208 0-83.07165013-38.31557013-83.07165013-84.92738987V161.37432213c0-46.50265813 37.55144213-83.50829547 83.07165013-83.50829546h721.4461728c46.06601387 0 83.28997227 37.11479787 83.28997227 83.50829546v503.6696384c0 46.72098027-37.33312 84.92738987-83.28997227 84.92738987H740.80181227v162.65014293c0 13.42682347-7.53212053 25.65287467-19.64901014 31.32925654-4.8030912 2.29238507-9.60618347 3.3839968-14.6275968 3.38399573zM151.2223328 147.07420907c-7.3137984 0-13.31766293 6.00386453-13.31766187 14.30011306v503.6696384c0 8.29624853 6.11302507 15.71920853 13.31766187 15.71920854h315.03913707c8.0779264 0 15.71920853 2.61986773 21.9413952 7.75044266l183.39076586 150.75157547V715.039776c0-19.10320427 15.82837013-34.27660693 34.9315744-34.27660693h166.14330027c7.42296 0 14.08179093-7.64128213 14.08179093-15.71920854V161.37432213c0-7.96876587-6.5496704-14.30011307-14.08179093-14.30011306H151.2223328z" fill="" p-id="5908"></path></svg>