<?xml version="1.0" standalone="no"?><!DOCTYPE svg PUBLIC "-//W3C//DTD SVG 1.1//EN" "http://www.w3.org/Graphics/SVG/1.1/DTD/svg11.dtd"><svg t="1558592416000" class="icon" style="" viewBox="0 0 1024 1024" version="1.1" xmlns="http://www.w3.org/2000/svg" p-id="5696" xmlns:xlink="http://www.w3.org/1999/xlink" width="200" height="200"><defs><style type="text/css"></style></defs><path d="M845.28125 154.08125l-101.19375-27.39375c-12.15-3.31875-18.73125-13.95-14.625-23.79375 4.10625-9.7875 17.26875-15.075 29.41875-11.8125l187.3125 50.79375c14.9625 4.05 20.64375 18.7875 11.19375 29.025l-127.85625 138.20625c-7.70625 8.26875-22.275 10.0125-32.625 3.825-10.2375-6.1875-12.375-18-4.66875-26.26875l85.6125-92.5875c-265.3875 45.9-452.025 228.09375-561.0375 550.125a23.56875 23.56875 0 0 1-29.475 14.5125 22.5 22.5 0 0 1-14.9625-28.575C383.1875 402.9875 574.4375 209.88125 845.28125 154.1375zM412.94375 95.80625c12.9375 0 23.34375 10.125 23.34375 22.6125a23.0625 23.0625 0 0 1-23.34375 22.66875H202.2875c-51.69375 0-93.54375 40.55625-93.54375 90.5625v566.325c0 50.0625 41.85 90.5625 93.54375 90.5625h584.4375c51.58125 0 93.4875-40.5 93.4875-90.5625V479.4875a23.0625 23.0625 0 0 1 23.34375-22.66875c12.9375 0 23.4 10.125 23.4 22.66875v318.4875c0 75.0375-62.83125 135.9-140.2875 135.9H202.23125C124.83125 933.875 62 873.0125 62 797.975V231.70625C62 156.6125 124.775 95.75 202.2875 95.75h210.65625z" fill="#2c2c2c" p-id="5697"></path></svg>