<?xml version="1.0" standalone="no"?><!DOCTYPE svg PUBLIC "-//W3C//DTD SVG 1.1//EN" "http://www.w3.org/Graphics/SVG/1.1/DTD/svg11.dtd"><svg t="1558583026064" class="icon" style="" viewBox="0 0 1024 1024" version="1.1" xmlns="http://www.w3.org/2000/svg" p-id="5635" xmlns:xlink="http://www.w3.org/1999/xlink" width="200" height="200"><defs><style type="text/css"></style></defs><path d="M907.68359375 830.99023438c0.29003906-0.32519531 0.57128906-0.65917969 0.87890625-0.98437501s0.6328125-0.72070313 0.94042969-1.08984375 0.71191406-0.87890625 1.06347656-1.35351562c0.20214844-0.26367188 0.421875-0.52734375 0.62402344-0.79980469 0.36914063-0.50097656 0.72070313-1.01074219 1.07226562-1.51171875 0.16699219-0.23730469 0.34277344-0.47460938 0.50097656-0.72070312 0.3515625-0.51855469 0.67675781-1.04589844 1.01074219-1.57324219 0.15820313-0.24609375 0.31640625-0.4921875 0.46582031-0.74707031 0.30761719-0.51855469 0.60644531-1.03710938 0.87890625-1.56445313 0.15820313-0.28125 0.31640625-0.5625 0.46582032-0.87890625 0.26367188-0.4921875 0.50976563-0.99316406 0.76464844-1.48535156 0.16699219-0.33398438 0.33398438-0.65917969 0.4921875-1.00195313s0.41308594-0.87890625 0.61523437-1.36230468 0.3515625-0.79101563 0.51855469-1.1953125 0.31640625-0.80859375 0.47460937-1.21289063 0.36035156-0.92285156 0.52734375-1.39746094 0.23730469-0.703125 0.36035156-1.06347656c0.17578125-0.52734375 0.3515625-1.0546875 0.50976563-1.58203125 0.09667969-0.30761719 0.17578125-0.62402344 0.26367188-0.93164062 0.16699219-0.58007813 0.32519531-1.15136719 0.46582031-1.7578125 0.0703125-0.28125 0.13183594-0.57128906 0.19335937-0.87890625 0.140625-0.60644531 0.28125-1.21289063 0.39550781-1.81933594 0.05273438-0.29003906 0.10546875-0.58007813 0.15820313-0.87890625 0.10546875-0.60644531 0.21972656-1.21289063 0.30761719-1.828125 0.05273438-0.33398438 0.08789063-0.67675781 0.12304687-1.01074219 0.0703125-0.5625 0.14941406-1.13378906 0.20214844-1.70507812s0.0703125-0.96679688 0.10546875-1.45019532 0.0703125-0.87890625 0.09667969-1.29199218q0.0703125-1.38867188 0.0703125-2.78613282v-0.73828125c0-0.65917969 0-1.31835938-0.05273438-1.97753906 0-0.29003906 0-0.58007813-0.06152344-0.87890625 0-0.62402344-0.07910156-1.25683594-0.140625-1.88085937 0-0.24609375-0.06152344-0.48339844-0.08789062-0.72949219-0.07910156-0.67675781-0.15820313-1.35351563-0.25488281-2.03027344 0-0.16699219-0.05273438-0.32519531-0.07910156-0.48339844-0.12304688-0.75585938-0.24609375-1.51171875-0.39550782-2.25878906l-0.04394531-0.2109375a55.90722656 55.90722656 0 0 0-11.59277344-24.3984375l-0.28125-0.32519531c-0.4921875-0.59765625-1.00195313-1.18652344-1.52050781-1.7578125s-1.21289063-1.30078125-1.83691406-1.93359375l-0.09667969-0.10546875-1.13378906-1.13378906-91.51171875-91.42382813-0.11425782-0.10546875-11.54003906-11.54003906a27.94042969 27.94042969 0 0 1-8.23535156-19.88964844V427.625a281.05664063 281.05664063 0 0 0-28.4765625-123.24023438c-0.23730469-0.59765625-0.4921875-1.18652344-0.7734375-1.7578125A281.390625 281.390625 0 0 0 702.72265625 220.94140625l-1.02832031-0.94921875q-1.48535156-1.36230469-2.99707032-2.69824219c-0.73828125-0.65917969-1.48535156-1.30957031-2.23242187-1.95117187s-1.4765625-1.29199219-2.22363281-1.92480469q-2.40820313-2.05664063-4.86914063-4.06054688l-0.05273437-0.04394531q-2.63671875-2.15332031-5.35253907-4.24511718l-0.28125-0.21972657A281.14453125 281.14453125 0 0 0 596.375 159.20703125V146.375a84.375 84.375 0 0 0-84.375-84.375 84.375 84.375 0 0 0-84.375 84.375v12.83203125a281.14453125 281.14453125 0 0 0-87.34570313 45.64160156l-0.29003906 0.21972657q-2.69824219 2.09179688-5.35253906 4.23632812l-0.05273437 0.04394531q-2.4609375 2.00390625-4.86914063 4.06054688c-0.74707031 0.64160156-1.48535156 1.29199219-2.23242187 1.93359375s-1.48535156 1.29199219-2.22363282 1.95117187q-1.51171875 1.3359375-2.99707031 2.70703125l-0.984375 0.94042969a281.390625 281.390625 0 0 0-61.2421875 81.66796875c-0.28125 0.58886719-0.53613281 1.17773438-0.7734375 1.7578125A281.05664063 281.05664063 0 0 0 230.75 427.625v201.70019531a27.94042969 27.94042969 0 0 1-8.23535156 19.88964844l-11.54003907 11.54003906-0.11425781 0.10546875L119.38378906 752.34570312 118.25 753.47949219l-0.09667969 0.10546875q-0.94042969 0.94921875-1.83691406 1.93359375c-0.52734375 0.58007813-1.02832031 1.16894531-1.52050781 1.7578125l-0.28125 0.32519531a55.90722656 55.90722656 0 0 0-11.59277344 24.3984375l-0.04394531 0.2109375c-0.14941406 0.74707031-0.28125 1.50292969-0.39550781 2.25878906 0 0.15820313-0.06152344 0.32519531-0.07910157 0.48339844-0.09667969 0.67675781-0.17578125 1.35351563-0.25488281 2.03027344 0 0.24609375-0.06152344 0.48339844-0.08789062 0.72949218-0.06152344 0.62402344-0.10546875 1.25683594-0.140625 1.88085938 0 0.29003906-0.04394531 0.58007813-0.06152344 0.87890625 0 0.65917969 0 1.31835938-0.05273438 1.97753906v0.73828125q0 1.38867188 0.0703125 2.78613281c0 0.43066406 0.06152344 0.87890625 0.09667969 1.29199219s0.06152344 0.96679688 0.10546875 1.45019531 0.13183594 1.13378906 0.20214844 1.70507813c0 0.33398438 0.07910156 0.67675781 0.12304687 1.01074219 0.08789063 0.61523438 0.20214844 1.22167969 0.30761719 1.828125 0.05273438 0.29003906 0.09667969 0.58007813 0.15820313 0.87890625 0.12304688 0.61523438 0.25488281 1.22167969 0.39550781 1.81933593 0.0703125 0.29003906 0.12304688 0.57128906 0.19335937 0.87890625 0.140625 0.58007813 0.30761719 1.16015625 0.46582031 1.7578125 0.08789063 0.30761719 0.16699219 0.62402344 0.26367188 0.93164063 0.15820313 0.53613281 0.33398438 1.06347656 0.50976563 1.58203125 0.11425781 0.3515625 0.22851563 0.71191406 0.36035156 1.06347656l0.52734375 1.39746094c0.17578125 0.46582031 0.30761719 0.80859375 0.47460937 1.21289062s0.34277344 0.79101563 0.51855469 1.1953125 0.40429688 0.87890625 0.61523438 1.36230469 0.32519531 0.66796875 0.4921875 1.00195313c0.24609375 0.50097656 0.50097656 0.99316406 0.76464843 1.48535156 0.14941406 0.28125 0.31640625 0.5625 0.46582031 0.87890625 0.29003906 0.52734375 0.58886719 1.04589844 0.87890625 1.56445312 0.14941406 0.25488281 0.30761719 0.50097656 0.46582032 0.74707032 0.32519531 0.52734375 0.65917969 1.0546875 1.01074219 1.57324218 0.16699219 0.24609375 0.33398438 0.47460938 0.50097656 0.72070313 0.3515625 0.50976563 0.703125 1.01953125 1.07226562 1.51171875 0.20214844 0.27246094 0.41308594 0.53613281 0.62402344 0.79980469 0.3515625 0.44824219 0.69433594 0.87890625 1.06347656 1.35351562s0.62402344 0.72949219 0.94042969 1.08984375 0.5625 0.66796875 0.87890625 0.984375q0.93164063 1.02832031 1.91601563 2.01269531l0.53613281 0.50976563c0.47460938 0.45703125 0.94921875 0.87890625 1.43261719 1.36230469l0.65039062 0.54492187c0.47460938 0.41308594 0.94042969 0.82617188 1.42382813 1.23046875l0.59765625 0.48339844c0.52734375 0.421875 1.0546875 0.87890625 1.59960937 1.24804687l0.43066406 0.30761719c0.60644531 0.44824219 1.22167969 0.87890625 1.85449219 1.30078125l0.24609375 0.11425781a55.90722656 55.90722656 0 0 0 25.42675781 9.05273438l0.72949219 0.05273437c0.67675781 0.06152344 1.34472656 0.11425781 2.03027344 0.14941407s1.24804688 0 1.88085937 0.05273437h188.96484375c13.06054688 64.10742188 69.88183594 112.5 137.79492188 112.5H540.125c67.91308594 0 124.734375-48.39257813 137.79492188-112.5h188.96484374c0.62402344 0 1.25683594 0 1.88085938-0.05273437s1.35351563-0.09667969 2.03027344-0.14941406l0.72949219-0.05273438a55.90722656 55.90722656 0 0 0 25.43554687-9.05273437l0.2109375-0.13183594c0.62402344-0.421875 1.23925781-0.87890625 1.85449219-1.30078125l0.43066406-0.30761719c0.54492188-0.40429688 1.07226563-0.82617188 1.59960938-1.24804687l0.58886718-0.45703125c0.48339844-0.39550781 0.95800781-0.81738281 1.42382813-1.23046875l0.66796875-0.58007813c0.4921875-0.44824219 0.95800781-0.87890625 1.43261719-1.36230469l0.53613281-0.50976562q1.03710938-1.01953125 1.97753906-2.04785156zM512 146.375q-14.15917969 0-28.125 1.37988281V146.375a28.125 28.125 0 0 1 15.93457031-25.34765625l0.12304688-0.05273438A28.125 28.125 0 0 1 540.125 146.375v1.37988281Q526.15917969 146.375 512 146.375z m-28.125 759.375a84.515625 84.515625 0 0 1-79.53222656-56.25h215.33203125A84.515625 84.515625 0 0 1 540.125 905.75h-56.25zM158.02050781 793.25l1.125-1.13378906 103.13964844-103.13085938A83.82128906 83.82128906 0 0 0 287 629.32519531V427.625a225 225 0 0 1 112.90429688-195.1171875l0.42187499-0.23730469q1.85449219-1.06347656 3.74414063-2.09179687l1.16015625-0.6328125q1.7578125-0.94921875 3.515625-1.86328125 1.55566406-0.79980469 3.12011719-1.57324219l1.08105468-0.53613281a225.05273438 225.05273438 0 0 1 67.18359375-20.68945313l0.41308594-0.06152343q3.46289063-0.48339844 6.93457031-0.87890625l0.703125-0.07910157 2.53125-0.24609375 2.73339844-0.24609375 2.01269531-0.15820312c1.59082031-0.11425781 3.18164063-0.21972656 4.79003907-0.29882813h0.94921875q2.1796875-0.10546875 4.39453125-0.16699218h1.23046875c1.7578125 0 3.45410156-0.06152344 5.18554687-0.06152344s3.45410156 0 5.17675781 0.06152344h1.24804688q2.1796875 0.06152344 4.35058594 0.16699218h0.96679687c1.59960938 0.07910156 3.19042969 0.18457031 4.77246094 0.29882813l2.03027344 0.15820312 2.71582031 0.23730469 2.54882812 0.24609375 0.60644532 0.0703125q3.515625 0.38671875 7.03125 0.87890625l0.38671875 0.05273438a225.05273438 225.05273438 0 0 1 67.19238281 20.68945312l1.07226563 0.53613281q1.58203125 0.78222656 3.14648437 1.59082032 1.7578125 0.87890625 3.515625 1.85449218l1.16894531 0.64160157q1.88085938 1.02832031 3.73535157 2.09179687l0.421875 0.23730469A225 225 0 0 1 737 427.625v201.70019531a83.82128906 83.82128906 0 0 0 24.71484375 59.66015625l103.13085938 103.13085938 1.12499999 1.13378906H158.02050781z" p-id="5636" fill="#ffffff"></path></svg>