<?xml version="1.0" standalone="no"?><!DOCTYPE svg PUBLIC "-//W3C//DTD SVG 1.1//EN" "http://www.w3.org/Graphics/SVG/1.1/DTD/svg11.dtd"><svg t="1558592372962" class="icon" style="" viewBox="0 0 1024 1024" version="1.1" xmlns="http://www.w3.org/2000/svg" p-id="5672" xmlns:xlink="http://www.w3.org/1999/xlink" width="200" height="200"><defs><style type="text/css"></style></defs><path d="M1019.2625 1093.34375" p-id="5673"></path><path d="M213.93125 173.99375L512 484.775 512 62C399.5 62 293.58125 104.46875 213.93125 173.99375zM487.3625 420.59375c0 0-236.475-243.61875-235.51875-244.35 123.01875-93.15 235.51875-87.8625 235.51875-87.8625L487.3625 420.59375z" p-id="5674"></path><path d="M168.48125 222.3125C102.10625 300.6125 62 401.58125 62 512c0 107.8875 59.56875 223.81875 123.24375 301.33125l286.7625-283.3875L168.48125 222.3125zM84.8375 508.5125c4.5-158.23125 86.11875-247.8375 86.11875-247.8375l263.7 270.675L188.5625 768.6125C188.5625 768.6125 81.35 631.53125 84.8375 508.5125z" p-id="5675"></path><path d="M568.25 67.11875L568.25 512l-345.15 348.6375C301.0625 923.975 403.325 962 511.775 962c249.91875 0 448.425-201.4875 448.425-450C960.2 285.36875 793.25 98.39375 568.25 67.11875zM548.9 937.3625c-158.5125 14.625-282.99375-80.8875-282.99375-80.8875l328.725-335.75625L594.63125 95.4125c0 0 151.2 21.09375 256.6125 161.71875 72.5625 96.75 110.475 264.31875 54.50625 409.55625C840.725 835.4375 682.49375 925.1 548.9 937.3625z" p-id="5676"></path></svg>